<svg fill="#05386B" xmlns="http://www.w3.org/2000/svg" viewBox="0 0 31 96.39" x="0px" y="0px"><title>CN Tower</title><g data-name="Layer 2"><g data-name="Layer 1"><path d="M15.5,62.11a1.5,1.5,0,0,0-1.5,1.5V93.13a1.5,1.5,0,0,0,3,0V63.61A1.5,1.5,0,0,0,15.5,62.11Z"></path><path d="M26.47,39.76c2.17-1.21,2.77-2.58,2.85-3.61h.18a1.5,1.5,0,1,0,0-3h-.69a13.57,13.57,0,0,0-3.07-4.09,9.06,9.06,0,0,0-2.74-2,3.94,3.94,0,0,0,1.1-2.74,4,4,0,0,0-3.18-3.91V16a1.5,1.5,0,0,0-1.5-1.5H17V1.5a1.5,1.5,0,0,0-3,0v13H11.58a1.5,1.5,0,0,0-1.5,1.5v4.42A4,4,0,0,0,6.9,24.33,3.94,3.94,0,0,0,8,27.07a9.06,9.06,0,0,0-2.74,2,13.57,13.57,0,0,0-3.07,4.09H1.5a1.5,1.5,0,0,0,0,3h.18c.09,1,.68,2.4,2.85,3.61a5.86,5.86,0,0,0,2.73,1.13l.14,0a4,4,0,0,0,2.08,5.63A153.68,153.68,0,0,1,7.22,70.35a148.46,148.46,0,0,1-6.29,24,1.49,1.49,0,0,0,.91,1.91,1.43,1.43,0,0,0,.5.09,1.49,1.49,0,0,0,1.41-1,152.09,152.09,0,0,0,6.43-24.52,158.07,158.07,0,0,0,2.29-24h6.06a156.8,156.8,0,0,0,2.29,24,151.81,151.81,0,0,0,6.43,24.52,1.5,1.5,0,0,0,1.41,1,1.43,1.43,0,0,0,.5-.09,1.51,1.51,0,0,0,.92-1.91,148.21,148.21,0,0,1-6.3-24,153.68,153.68,0,0,1-2.26-23.79,4,4,0,0,0,2.08-5.63l.14,0A5.81,5.81,0,0,0,26.47,39.76ZM13.08,17.5h4.84v1.83H13.08ZM10.9,23.33h9.2a1,1,0,0,1,0,2H10.9a1,1,0,1,1,0-2ZM7.38,31.19l.09-.1c1.2-1.37,3.79-2.35,6.85-2.58.38,0,.76,0,1.08,0h.12c.4,0,.78,0,1.15,0h.1c3,.22,5.56,1.2,6.76,2.57l.09.1a13.59,13.59,0,0,1,1.73,2H5.65A13.59,13.59,0,0,1,7.38,31.19Zm-.83,6.36h0l-.18-.21-.24-.12a3.46,3.46,0,0,1-1.34-1.07H26.23a3.6,3.6,0,0,1-1.36,1.06l-.21.1-.18.21a3.78,3.78,0,0,1-1.39.44l-.16,0-.31.09-.3.07-.52.14-.74.17-1.18.21-.65.09-.68.06h-6.1l-.68-.07-.64-.08-1.2-.21-.72-.17-.53-.14-.3-.07L8.07,38l-.16,0A4.39,4.39,0,0,1,6.55,37.55ZM20.1,43.83H10.9a1,1,0,1,1,0-2h1.4l.72.08.48,0c.62,0,1.25.07,2,.07h.13c.65,0,1.28,0,1.9-.07l.48,0,.72-.08h1.4a1,1,0,0,1,0,2Z"></path></g></g></svg>