<svg fill="#05386B" xmlns="http://www.w3.org/2000/svg" xmlns:xlink="http://www.w3.org/1999/xlink" version="1.1" x="0px" y="0px" viewBox="0 0 100 100" enable-background="new 0 0 100 100" xml:space="preserve"><polygon points="43.756,60.695 32.248,56.137 43.756,51.738 43.756,47.06 27.262,54.195 27.262,58.17 43.756,65.342 "></polygon><polygon points="54.698,43.612 51.238,43.612 45.283,68.492 48.682,68.492 "></polygon><polygon points="72.738,54.23 56.225,47.09 56.225,51.703 67.752,56.186 56.225,60.713 56.225,65.357 72.738,58.17 "></polygon><path d="M92.335,11.792H7.665C6.193,11.792,5,12.986,5,14.458v71.084c0,1.472,1.193,2.666,2.665,2.666h84.67  c1.472,0,2.665-1.194,2.665-2.666V14.458C95,12.986,93.807,11.792,92.335,11.792z M35.756,17.15c1.854,0,3.361,1.504,3.361,3.36  c0,1.856-1.508,3.36-3.361,3.36s-3.359-1.504-3.359-3.36C32.396,18.654,33.902,17.15,35.756,17.15z M25.118,17.15  c1.853,0,3.361,1.504,3.361,3.36c0,1.856-1.508,3.36-3.361,3.36s-3.36-1.504-3.36-3.36C21.757,18.654,23.265,17.15,25.118,17.15z   M14.478,17.15c1.855,0,3.359,1.504,3.359,3.36c0,1.856-1.504,3.36-3.359,3.36c-1.853,0-3.36-1.504-3.36-3.36  C11.117,18.654,12.625,17.15,14.478,17.15z M89.668,82.876H10.332V29.229h79.336V82.876z"></path></svg>